<svg fill="none" height="100" viewBox="0 0 100 100" width="100" xmlns="http://www.w3.org/2000/svg"><g fill="#65b400"><path d="m74.0063.490234h-48.0068c-2.7098.001839-5.0786 2.602326-5.0806 5.205886v88.60788c.002 2.6035 2.3706 5.204 5.0806 5.2058h48.0068c2.7098-.0018 5.074-2.6023 5.0759-5.2058l.5102-88.60788c-.0019-2.60356-2.8763-5.204047-5.5861-5.205886zm-48.0068 3.758166h48.0068c.8323 0 1.5068.64808 1.5068 1.44772v5.08828h-51.0204v-5.08828c0-.79964.6745-1.44772 1.5068-1.44772zm49.5136 81.6993h-51.0204v-71.8954h51.0204zm-1.5068 9.804h-48.0068c-.8323 0-1.5068-.6481-1.5068-1.4477v-5.0883h51.0204v5.0883c0 .7996-.6747 1.4477-1.5068 1.4477z"/><path d="m41.4995 9.1503h6.8027c.9392 0 1.7007-.73162 1.7007-1.63399s-.7615-1.63399-1.7007-1.63399h-6.8027c-.9392 0-1.7007.73162-1.7007 1.63399s.7615 1.63399 1.7007 1.63399z"/><path d="m55.104 9.1503h3.4014c.9392 0 1.7006-.73162 1.7006-1.63399s-.7614-1.63399-1.7006-1.63399h-3.4014c-.9392 0-1.7007.73162-1.7007 1.63399s.7615 1.63399 1.7007 1.63399z"/><path d="m56.8052 94.1177h-13.6055c-.9392 0-1.7007-.7316-1.7007-1.634s.7615-1.634 1.7007-1.634h13.6055c.9392 0 1.7006.7316 1.7006 1.634s-.7614 1.634-1.7006 1.634z"/><path d="m16.0921 66.8448c-.6605 0-1.2614-.3676-1.5408-.9428-4.79633-9.892-4.89241-21.2962-.2636-31.2615.3774-.8264 1.3805-1.2024 2.2407-.8398.8601.3625 1.2514 1.3264.8741 2.1527-.0036.008-.0072.0158-.011.0237-4.2222 9.0964-4.1353 19.5041.238 28.5344.3982.8172.0315 1.79-.819 2.1726-.2228.1002-.4656.1527-.7116.1542z"/><path d="m6.84933 70.9968c-.66029.0002-1.26084-.3666-1.54081-.9412-6.049962-12.4726-6.170924-26.8533-.33164-39.4183.38414-.8239 1.39073-1.1926 2.2483-.8235s1.24129 1.3362.85714 2.1601c-5.43579 11.6971-5.32419 25.0844.30613 36.6961.39817.8172.03146 1.79-.81909 2.1726-.22279.1003-.46556.1528-.71153.1542z"/><path d="m83.9125 66.8448c-.9392-.0006-1.7002-.7327-1.6996-1.635.0002-.2392.0548-.4753.1605-.6918 4.3733-9.0302 4.4602-19.4379.2381-28.5343-.3861-.824-.0038-1.7925.8537-2.1634.8576-.371 1.8657-.0037 2.2517.8202 4.6274 9.9633 4.5317 21.3646-.2619 31.2549-.2778.5783-.8797.9488-1.5425.9494z"/><path d="m93.1557 70.9968c-.9392-.0006-1.7003-.7326-1.6996-1.635.0002-.2392.0548-.4753.1605-.6918 5.6303-11.6117 5.7419-24.999.3061-36.6961-.3842-.8239-.0004-1.791.8571-2.1601.8576-.3691 1.8642-.0004 2.2483.8235 5.8369 12.5662 5.7119 26.9469-.3401 39.4183-.2787.5719-.8752.9383-1.5323.9412z"/></g></svg>