<svg fill="none" height="32" viewBox="0 0 32 32" width="32" xmlns="http://www.w3.org/2000/svg"><path d="m30.72 0h-29.44c-.708 0-1.28.572-1.28 1.28v29.44c0 .708.572 1.28 1.28 1.28h29.44c.708 0 1.28-.572 1.28-1.28v-29.44c0-.708-.572-1.28-1.28-1.28zm-6.108 11.588c.012.188.012.384.012.576 0 5.872-4.472 12.636-12.644 12.636-2.52 0-4.856-.732-6.824-1.992.36.04.704.056 1.072.056 2.08 0 3.992-.704 5.516-1.896-1.952-.04-3.592-1.32-4.152-3.08.684.1 1.3.1 2.004-.08-1.0051-.2042-1.9085-.7501-2.55673-1.5449-.64824-.7948-1.00132-1.7895-.99927-2.8151v-.056c.588.332 1.28.536 2.004.564-.60863-.4056-1.10777-.9552-1.45316-1.5999-.34538-.6447-.52635-1.3647-.52684-2.0961 0-.828.216-1.584.604-2.24 1.11561 1.37335 2.50772 2.4966 4.0859 3.2967 1.5781.8001 3.3069 1.2591 5.0741 1.3473-.628-3.02 1.628-5.464 4.34-5.464 1.28 0 2.432.536 3.244 1.4 1.004-.188 1.964-.564 2.82-1.068-.332 1.028-1.028 1.896-1.952 2.444.896-.096 1.76-.344 2.56-.692-.604.888-1.36 1.676-2.228 2.304z" fill="#1da1f2"/></svg>