<svg fill="none" height="100" viewBox="0 0 100 100" width="100" xmlns="http://www.w3.org/2000/svg"><g fill="#65b400"><path d="m49.9997 43.3333c6.4333 0 11.6666-5.235 11.6666-11.6666 0-6.4317-5.2333-11.6667-11.6666-11.6667-6.4334 0-11.6667 5.235-11.6667 11.6667 0 6.4316 5.2333 11.6666 11.6667 11.6666zm0-19.8333c4.595 0 8.0003 3.5717 8.0003 8.1667s-3.4053 7.8333-8.0003 7.8333-7.9997-3.2383-7.9997-7.8333 3.4047-8.1667 7.9997-8.1667z"/><path d="m49.7049 91.2617 25.5683-36.9284c9.59-12.785 8.2034-33.8-2.9683-44.96997-6.0367-6.03833-14.0633-9.36333-22.6-9.36333s-16.5633 3.325-22.6 9.36167c-11.1717 11.17003-12.5583 32.18503-3.0067 44.92003zm-19.7049-79.5434c5.4083-5.40663 12.0582-7.7183 19.7049-7.7183s14.3868 2.31167 19.7951 7.7183c10.0833 10.0817 11.2033 29.0117 2.5 40.615l-22.2951 32.6667-22.6-32.6667c-8.6667-11.5533-7.1866-30.5333 2.8951-40.615z"/><path d="m70.195 71.6783c-.9167-.1117-1.7433.545-1.85 1.46s.5467 1.7433 1.46 1.85c17.5267 2.0633 26.8617 7.6233 26.8617 10.845 0 4.5233-17.7534 10.8333-46.6667 10.8333s-46.66667-6.31-46.66667-10.8333c0-3.2217 9.33497-8.7817 26.86167-10.845.9133-.1067 1.5667-.9367 1.46-1.85-.1083-.915-.935-1.575-1.85-1.46-17.5483 2.0667-29.805 7.8867-29.805 14.155 0 7.04 17.175 14.1667 50 14.1667s50-7.1267 50-14.1667c0-6.2683-12.2567-12.0883-29.805-14.155z"/></g></svg>