<svg fill="none" height="100" viewBox="0 0 100 100" width="100" xmlns="http://www.w3.org/2000/svg"><g fill="#65b400"><path d="m50 1c-27.57 0-49 21.43-49 49 0 27.5699 21.43 49 49 49 27.5699 0 49-21.43 49-49s-21.4301-49-49-49zm2.551 93.8239v-5.0278c0-1.4089-1.1421-2.551-2.551-2.551-1.409 0-2.551 1.1421-2.551 2.551v5.0278c-22.7298-1.2796-40.99343-19.5432-42.27301-42.2729h5.02801c1.4089 0 2.551-1.1421 2.551-2.551 0-1.409-1.1421-2.551-2.551-2.551h-5.02801c1.27958-22.7298 19.54321-40.99317 42.27301-42.27276v5.02776c0 1.4089 1.142 2.551 2.551 2.551 1.4089 0 2.551-1.1421 2.551-2.551v-5.02776c22.7297 1.27959 40.9933 19.54296 42.2729 42.27276h-5.028c-1.4089 0-2.551 1.142-2.551 2.551 0 1.4089 1.1421 2.551 2.551 2.551h5.028c-1.2796 22.7297-19.5432 40.9933-42.2729 42.2729z"/><path d="m27.8561 16.7452c.4607.8556 1.3392 1.3413 2.2474 1.3413.4084 0 .823-.0985 1.2077-.3056 1.2405-.6681 1.7043-2.2161 1.0362-3.4564-.6679-1.2403-2.2148-1.7043-3.4556-1.0365-1.2403.6679-1.7046 2.2151-1.0365 3.4557z"/><path d="m14.3245 32.3474.0015.0008c.3847.2071.7985.3053 1.2066.3053.9082 0 1.7873-.4865 2.2482-1.3423.6679-1.2406.2031-2.788-1.0375-3.4559-1.2403-.6676-2.7874-.2038-3.4556 1.0365-.6678 1.2406-.2035 2.7877 1.0368 3.4556z"/><path d="m14.3254 67.653c-1.2403.6679-1.7046 2.2151-1.0365 3.4556.4607.8556 1.34 1.3421 2.2482 1.3421.4084 0 .8224-.0982 1.2071-.3054l.0016-.0007c1.2403-.6679 1.7038-2.2146 1.0359-3.4551-.6676-1.2408-2.2155-1.7043-3.4563-1.0365z"/><path d="m31.3112 82.2193c-1.2403-.6678-2.788-.2028-3.4559 1.0375-.6681 1.2406-.2038 2.7878 1.0365 3.4556.3847.2072.7987.3054 1.2071.3054.9082 0 1.7875-.4865 2.2482-1.3421l.0008-.0015c.6683-1.2406.2038-2.787-1.0367-3.4549z"/><path d="m72.0698 83.1274c-.7385-1.2-2.3089-1.5732-3.5091-.8347-1.2.7385-1.5735 2.3107-.835 3.5104.4819.7829 1.3184 1.2143 2.175 1.2143.4561 0 .9179-.1222 1.3347-.3788 1.2-.7385 1.574-2.3097.8355-3.5097z"/><path d="m85.6747 67.6529-.0016-.0007c-1.2403-.6679-2.7867-.2033-3.4548 1.037-.6679 1.2405-.2031 2.788 1.0375 3.4558.3847.2072.7987.3054 1.2071.3054.9082 0 1.7875-.4865 2.2482-1.3421.6682-1.2403.2039-2.7875-1.0364-3.4554z"/><path d="m83.2561 27.855-.0016.0008c-1.2403.6678-1.7038 2.2145-1.0359 3.4551.4607.8556 1.34 1.3418 2.2487 1.3418.4084 0 .823-.0985 1.2076-.3056 1.2403-.6679 1.7046-2.215 1.0365-3.4556-.6676-1.2401-2.2145-1.7041-3.4553-1.0365z"/><path d="m71.2361 13.3615c-1.2003-.7385-2.7712-.3643-3.5097.8355l-.001.0015c-.7385 1.2-.3638 2.7704.836 3.5089.4168.2564.878.3786 1.3339.3786.8569 0 1.6941-.4319 2.176-1.2151.7388-1.1997.3645-2.7711-.8352-3.5094z"/><path d="m54 53c.4347-.7503 1.1025-2.0733 1.1025-2.9998 0-1.8808-1.5808-3.5255-3.1025-4.4102v-25.1813c0-1.4089-.5906-2.551-1.9995-2.551-1.409 0-2.0005 1.1421-2.0005 2.551v25.1813c-1.5217.8847-3.1016 2.5294-3.1016 4.4102 0 2.8102 2.7914 4.9998 5.6016 4.9998l8.5 15c.4724.8184 1.0902 1.5507 1.9719 1.5507.4326 0 .8714-.1102 1.2732-.3421 1.2201-.7043.9595-1.9885.2549-3.2086z"/></g></svg>