<svg width="100" height="100" viewBox="0 0 100 100" fill="none" xmlns="http://www.w3.org/2000/svg">
<path d="M49.9997 43.3333C56.433 43.3333 61.6663 38.0983 61.6663 31.6667C61.6663 25.235 56.433 20 49.9997 20C43.5663 20 38.333 25.235 38.333 31.6667C38.333 38.0983 43.5663 43.3333 49.9997 43.3333ZM49.9997 23.5C54.5947 23.5 58 27.0717 58 31.6667C58 36.2617 54.5947 39.5 49.9997 39.5C45.4047 39.5 42 36.2617 42 31.6667C42 27.0717 45.4047 23.5 49.9997 23.5Z" fill="#65B400"/>
<path d="M49.7049 91.2617L75.2732 54.3333C84.8632 41.5483 83.4766 20.5333 72.3049 9.36333C66.2682 3.325 58.2416 0 49.7049 0C41.1682 0 33.1416 3.325 27.1049 9.36167C15.9332 20.5317 14.5466 41.5467 24.0982 54.2817L49.7049 91.2617ZM30 11.7183C35.4083 6.31167 42.0582 4 49.7049 4C57.3516 4 64.0917 6.31167 69.5 11.7183C79.5833 21.8 80.7033 40.73 72 52.3333L49.7049 85L27.1049 52.3333C18.4382 40.78 19.9183 21.8 30 11.7183Z" fill="#65B400"/>
<path d="M70.195 71.6783C69.2783 71.5666 68.4517 72.2233 68.345 73.1383C68.2383 74.0533 68.8917 74.8816 69.805 74.9883C87.3317 77.0516 96.6667 82.6116 96.6667 85.8333C96.6667 90.3566 78.9133 96.6666 50 96.6666C21.0867 96.6666 3.33333 90.3566 3.33333 85.8333C3.33333 82.6116 12.6683 77.0516 30.195 74.9883C31.1083 74.8816 31.7617 74.0516 31.655 73.1383C31.5467 72.2233 30.72 71.5633 29.805 71.6783C12.2567 73.745 0 79.565 0 85.8333C0 92.8733 17.175 100 50 100C82.825 100 100 92.8733 100 85.8333C100 79.565 87.7433 73.745 70.195 71.6783Z" fill="#65B400"/>
</svg>
